<?xml version="1.0" encoding="utf-8"?>
<!-- Generator: Adobe Illustrator 22.1.0, SVG Export Plug-In . SVG Version: 6.00 Build 0)  -->
<svg version="1.1" id="Ebene_1" xmlns="http://www.w3.org/2000/svg" xmlns:xlink="http://www.w3.org/1999/xlink" x="0px" y="0px"
	 viewBox="0 0 146 146" style="enable-background:new 0 0 146 146;" xml:space="preserve">
<style type="text/css">
	.st0{fill:#3C5A9E;}
	.st1{fill:#FFFFFF;}
	.st2{fill:#FF2B06;}
	.st3{fill:none;stroke:#3C5A9E;stroke-width:1.4173;stroke-miterlimit:10;}
</style>
<path class="st0" d="M90.1,66c10.3-3,14-6.7,14-6.7l1-1.1l1,1.1c0,0,3.7,3.7,14,6.7V53.2h11.6V38.4H80v14.8h10.2V66z"/>
<g>
	<g>
		<path class="st1" d="M85.7,43c0.7-0.7,1.7-1.1,2.7-1.1s2,0.4,2.8,1.2c1.5,1.5,1.5,4,0,5.5c-0.7,0.7-1.7,1.1-2.7,1.1
			s-2-0.4-2.8-1.2C84.1,46.9,84.2,44.5,85.7,43"/>
		<path class="st2" d="M86.4,47.7c-1.1-1.1-1.1-2.9,0-4s2.9-1.1,4,0s1.1,2.9,0,4C89.2,48.9,87.5,48.9,86.4,47.7"/>
	</g>
	<g>
		<path class="st1" d="M97.6,43c0.7-0.7,1.7-1.1,2.7-1.1s2,0.4,2.8,1.2c1.5,1.5,1.5,4,0,5.5c-0.7,0.7-1.7,1.1-2.7,1.1
			s-2-0.4-2.8-1.2C96,46.9,96.1,44.5,97.6,43"/>
		<path class="st2" d="M98.3,47.7c-1.1-1.1-1.1-2.9,0-4s2.9-1.1,4,0s1.1,2.9,0,4C101.1,48.9,99.4,48.9,98.3,47.7"/>
	</g>
	<g>
		<path class="st1" d="M109.5,43c0.7-0.7,1.7-1.1,2.7-1.1s2,0.4,2.8,1.2c1.5,1.5,1.5,4,0,5.5c-0.7,0.7-1.7,1.1-2.7,1.1
			s-2-0.4-2.8-1.2C107.9,46.9,108,44.5,109.5,43"/>
		<path class="st2" d="M110.2,47.7c-1.1-1.1-1.1-2.9,0-4s2.9-1.1,4,0s1.1,2.9,0,4C113,48.9,111.3,48.9,110.2,47.7"/>
	</g>
	<g>
		<path class="st1" d="M121.5,43c0.7-0.7,1.7-1.1,2.7-1.1s2,0.4,2.8,1.2c1.5,1.5,1.5,4,0,5.5c-0.7,0.7-1.7,1.1-2.7,1.1
			s-2-0.4-2.8-1.2C119.9,46.9,120,44.5,121.5,43"/>
		<path class="st2" d="M122.2,47.7c-1.1-1.1-1.1-2.9,0-4s2.9-1.1,4,0s1.1,2.9,0,4C125,48.9,123.3,48.9,122.2,47.7"/>
	</g>
</g>
<polygon class="st3" points="77.3,70.5 22,93.4 22,81.4 77.3,58.5 "/>
<path class="st3" d="M77.5,57.7c0,0,8.1,13.7,11.9,12.1"/>
<path class="st3" d="M21.9,81.3c0,0-8.1,15.7-11.9,14.1"/>
<image style="overflow:visible;" width="313" height="283" xlink:href="../../Blue Water BREB/Website/Bilddaten/snap.png"  transform="matrix(0.5671 0 0 0.5671 169.9096 12.4059)">
</image>
<path class="st0" d="M316.2,68.9c-22-2.7-28.7-9.8-28.7-9.8s-6.7,7.2-28.7,9.8c-10,45.2,28.7,69.8,28.7,69.8S326.2,114.1,316.2,68.9
	z"/>
<path class="st0" d="M133.9,70.1c-22-2.7-28.7-9.8-28.7-9.8s-6.7,7.2-28.7,9.8c-3.5,16-1,29.4,3.8,40c2,1.8,5.1,3.9,8.9,4
	c0.2,0,0.3,0,0.5,0c4,0,8-2.3,11.8-6.7l2.2-2.7l1.7,3c0,0,3.5,5.7,8.9,6.3c0.3,0,0.7,0.1,1,0.1c3.7,0,7.6-2.3,11.8-6.8l2-2.2
	l1.7,2.5c0,0,0.1,0.1,0.3,0.4C135.2,97.6,137.1,84.9,133.9,70.1z"/>
<path class="st0" d="M73,0C32.8,0,0,32.8,0,73c0,40.3,32.8,73,73,73s73-32.8,73-73S113.3,0,73,0z M129.6,108.3l-0.7-1l-0.8,0.9
	c-4.9,5.3-9.6,7.7-14,7.2c-6.2-0.7-10-7-10-7l-0.7-1.2l-0.9,1.1c-4.3,5-8.8,7.4-13.4,7.2c-7.3-0.3-12.4-7.1-12.4-7.2l-0.7-0.9
	l-0.8,0.8c-6.5,6.1-12.3,8.6-17.3,7.5c-6.4-1.4-9.4-8.6-9.4-8.7l-0.7-1.6l-1.1,1.4c-4.9,6.3-9.7,9.3-14.2,8.9
	c-6.8-0.6-11-8.6-11.1-8.7l-1-1.9l-0.8,2c0,0.1-1.7,3.8-5.3,6.3C6.3,101.7,1.7,87.9,1.7,73c0-39.3,32-71.3,71.3-71.3
	s71.3,32,71.3,71.3c0,14.3-4.2,27.5-11.5,38.7C130.8,110,129.6,108.3,129.6,108.3z"/>
<path class="st0" d="M272.5,64.8c10.3-3,14-6.7,14-6.7l1-1.1l1,1.1c0,0,3.7,3.7,14,6.7V52h11.6V37.2h-51.8V52h10.2V64.8z"/>
<g>
	<g>
		<path class="st1" d="M268,41.8c0.7-0.7,1.7-1.1,2.7-1.1s2,0.4,2.8,1.2c1.5,1.5,1.5,4,0,5.5c-0.7,0.7-1.7,1.1-2.7,1.1
			s-2-0.4-2.8-1.2C266.4,45.7,266.5,43.3,268,41.8"/>
		<path class="st2" d="M268.7,46.5c-1.1-1.1-1.1-2.9,0-4s2.9-1.1,4,0s1.1,2.9,0,4C271.5,47.7,269.8,47.7,268.7,46.5"/>
	</g>
	<g>
		<path class="st1" d="M280,41.8c0.7-0.7,1.7-1.1,2.7-1.1s2,0.4,2.8,1.2c1.5,1.5,1.5,4,0,5.5c-0.7,0.7-1.7,1.1-2.7,1.1
			s-2-0.4-2.8-1.2C278.4,45.7,278.5,43.3,280,41.8"/>
		<path class="st2" d="M280.7,46.5c-1.1-1.1-1.1-2.9,0-4c1.1-1.1,2.9-1.1,4,0c1.1,1.1,1.1,2.9,0,4C283.5,47.7,281.8,47.7,280.7,46.5
			"/>
	</g>
	<g>
		<path class="st1" d="M291.9,41.8c0.7-0.7,1.7-1.1,2.7-1.1s2,0.4,2.8,1.2c1.5,1.5,1.5,4,0,5.5c-0.7,0.7-1.7,1.1-2.7,1.1
			s-2-0.4-2.8-1.2C290.3,45.7,290.4,43.3,291.9,41.8"/>
		<path class="st2" d="M292.6,46.5c-1.1-1.1-1.1-2.9,0-4s2.9-1.1,4,0s1.1,2.9,0,4C295.4,47.7,293.7,47.7,292.6,46.5"/>
	</g>
	<g>
		<path class="st1" d="M303.8,41.8c0.7-0.7,1.7-1.1,2.7-1.1s2,0.4,2.8,1.2c1.5,1.5,1.5,4,0,5.5c-0.7,0.7-1.7,1.1-2.7,1.1
			s-2-0.4-2.8-1.2C302.2,45.7,302.3,43.3,303.8,41.8"/>
		<path class="st2" d="M304.5,46.5c-1.1-1.1-1.1-2.9,0-4s2.9-1.1,4,0s1.1,2.9,0,4C307.3,47.7,305.6,47.7,304.5,46.5"/>
	</g>
</g>
<path class="st0" d="M510.5,84.3c8.8-2.8,11.9-6,12-6.1l1-1.1l1,1.1c0,0,3.8,3.8,14.5,6.8V71.3h13.3V58.6h-27.5h-27.5v12.8h13.3
	V84.3z"/>
<path class="st0" d="M552.1,89c-22-2.7-28.7-9.8-28.7-9.8s-6.7,7.2-28.7,9.8c-10,45.2,28.7,69.8,28.7,69.8S562.1,134.2,552.1,89z"/>
<g>
	<g>
		<path class="st1" d="M504.2,62.1c0.7-0.7,1.7-1.1,2.7-1.1s2,0.4,2.8,1.2c1.5,1.5,1.5,4,0,5.5c-0.7,0.7-1.7,1.1-2.7,1.1
			s-2-0.4-2.8-1.2C502.6,66,502.7,63.6,504.2,62.1"/>
		<path class="st2" d="M504.9,66.8c-1.1-1.1-1.1-2.9,0-4c1.1-1.1,2.9-1.1,4,0c1.1,1.1,1.1,2.9,0,4C507.7,68,506,68,504.9,66.8"/>
	</g>
	<g>
		<path class="st1" d="M516.1,62.1c0.7-0.7,1.7-1.1,2.7-1.1s2,0.4,2.8,1.2c1.5,1.5,1.5,4,0,5.5c-0.7,0.7-1.7,1.1-2.7,1.1
			s-2-0.4-2.8-1.2C514.5,66,514.6,63.6,516.1,62.1"/>
		<path class="st2" d="M516.8,66.8c-1.1-1.1-1.1-2.9,0-4c1.1-1.1,2.9-1.1,4,0c1.1,1.1,1.1,2.9,0,4C519.6,68,517.9,68,516.8,66.8"/>
	</g>
	<g>
		<path class="st1" d="M528,62.1c0.7-0.7,1.7-1.1,2.7-1.1s2,0.4,2.8,1.2c1.5,1.5,1.5,4,0,5.5c-0.7,0.7-1.7,1.1-2.7,1.1
			s-2-0.4-2.8-1.2C526.4,66,526.5,63.6,528,62.1"/>
		<path class="st2" d="M528.7,66.8c-1.1-1.1-1.1-2.9,0-4s2.9-1.1,4,0s1.1,2.9,0,4C531.5,68,529.8,68,528.7,66.8"/>
	</g>
	<g>
		<path class="st1" d="M540,62.1c0.7-0.7,1.7-1.1,2.7-1.1s2,0.4,2.8,1.2c1.5,1.5,1.5,4,0,5.5c-0.7,0.7-1.7,1.1-2.7,1.1
			s-2-0.4-2.8-1.2C538.4,66,538.5,63.6,540,62.1"/>
		<path class="st2" d="M540.7,66.8c-1.1-1.1-1.1-2.9,0-4c1.1-1.1,2.9-1.1,4,0c1.1,1.1,1.1,2.9,0,4C543.5,68,541.8,68,540.7,66.8"/>
	</g>
</g>
<g>
	<polygon class="st0" points="258.9,68.9 211.3,94.8 211.3,82.8 258.9,56.9 	"/>
	<path class="st3" d="M258.9,56.9c0,0,8.1,13.7,11.9,12.1"/>
	<path class="st3" d="M211.9,83.1c0,0-8.1,13.7-11.9,12.1"/>
</g>
<g>
	<path class="st0" d="M6.4,94c1.9,6.1,4.7,11.9,8.2,17.3c2-1.8,3.3-3.9,3.6-4.6l2-5l2.4,4.6c0,0,0.1,0.1,0.1,0.1
		c1.3,2.2,4.9,7.4,9.9,7.9c0.2,0,0.4,0,0.7,0c3.8,0,8-2.8,12.3-8.4l2.6-3.3l1.8,4v0c0.5,1,3.2,6.5,8.3,7.6c0.7,0.1,1.3,0.2,2,0.2
		c3.6,0,7.8-2,12.4-5.9V94H6.4z"/>
</g>
</svg>
